<svg xmlns="http://www.w3.org/2000/svg" viewBox="0 0 612 792"><style type="text/css">
	.st0{fill:transparent;}
	.st1{fill:white;}
	.st2{fill:white;}
	.st3{fill:white;}
	.st4{fill:white;}
</style><path class="st0" d="M9.4 393.1c0-15.9 0.1-31.9-0.1-47.8 0-3.4 0.7-4 4-4 108.4 0.1 216.8 0.1 325.1 0.1 -0.2 2.5-2.5 2.3-4 2.8 -12.4 4.1-18.6 12.3-19 25.3 0 1.1-0.1 2.3 0 3.4 0.1 3.7-1.4 6-5.4 6 -4.3 0-4.4 2.9-4.4 6 0 2.9 0 5.8 4 5.8 4.9 0 5.7 3.2 5.7 7.2 0 14.2 0 28.3 0 42.5 0 7.9 0 7.9 7.8 7.9 0.7 0 1.3 0 2 0 6.7-0.1 6.9-0.2 6.9-6.8 0-14 0-28 0-42 0-7.9 0.3-8.4 8-8.8 4.6-0.2 4.7-2.9 4.7-6.2 0-3.4-0.7-5.5-4.7-5.7 -7.7-0.4-9.1-2.5-7.3-10.2 1.9-8.1 6.8-12.2 14.3-12 6.9 0.2 11.6 4.9 12.9 12.9 0.4 2.4 0.3 4.9 0.3 7.3 0 18.2 0 36.4 0 54.7 0 11.2 6.4 17.5 17.5 17.7 4.4 0.1 8.7-0.5 13-1.5 3.1-0.8 4.3-2.5 3.6-5.7 -0.4-1.6-0.6-3.2-0.9-4.8 -0.3-2.3-1.3-3.7-3.9-3.1 -8.4 2.1-12.7-3.5-12.7-12.1 0-16.3 0-32.5 0-48.8 0-2.4 0.1-4.9-0.2-7.3 -1.4-10.5-7-17.6-17-21.2 -1.5-0.5-3.2-0.9-4.5-1.8 -0.5-0.4-0.6-0.9-0.3-1.5 82.3 0 164.7 0 247-0.1 3.3 0 4 0.7 4 4 -0.2 34.7-0.1 69.3 0 104 0 2.9-0.6 3.5-3.5 3.5 -196.6-0.1-393.2-0.1-589.7 0 -2.9 0-3.5-0.6-3.5-3.5 0.2-16.1 0.1-32.2 0.1-48.3 0.5-0.3 1-0.2 1.4 0.2 1.5 2.9 1.7 6.3 2.4 9.4 4.9 21 24.3 39.4 48.5 37.9 8.4-0.5 15.8-3.3 22.4-8.5 1.2-1 2.6-2.6 4.3-1.7 1.6 0.8 1.3 2.8 1.5 4.4 0.2 2-0.7 4.8 2.1 5.4 3.6 0.7 7.4 1.2 10.9-0.6 1.2-0.6 1-2.3 1-3.6 0-14 0-28 0-42 0-3.4-1.5-4.5-4.8-4.5 -8.3 0.1-16.6 0.2-24.9 0 -4.5-0.1-4.9 2.4-4.8 5.9 0.1 5.4 0.4 6 5.1 6.1 2.9 0.1 5.9 0 8.8 0 6.2 0.2 8.5 4.4 5.4 9.8 -0.7 1.3-1.7 2.4-2.8 3.3 -10 9.2-21.4 14.1-34.8 8.9 -13-5-19.7-15.6-21.3-29.2 -1.4-12.3 1.4-23.6 10.6-32.7 12-11.8 32.6-10.8 43.5 2.1 3.6 4.3 3.6 4.3 8.1 1.1 9-6.5 9-6.8 1.2-14.7 -14.5-14.5-40.4-16.5-58.6-4.4 -11.7 7.8-18.9 18.6-21.8 32.3 -0.5 2.4-0.6 4.9-1.9 7C10.4 393.4 9.9 393.4 9.4 393.1z"/><path class="st1" d="M355.2 342.3c14 1.8 23.1 11.8 23.3 26.1 0.2 17.7 0.1 35.5 0.1 53.2 0 10.5 2.7 12.8 12.9 10.6 2.1-0.5 2.9-0.1 3.2 2 0.6 3.7 1.2 7.4 2 11 0.3 1.6-0.2 2.4-1.7 2.9 -7.8 2.5-15.8 4.1-23.9 1.8 -8-2.3-12-8-12-16.3 0-18.9 0-37.7 0-56.6 0-2.8 0-5.6-0.5-8.3 -1.2-7-4.9-10.4-11.2-10.6 -7-0.3-11 2.9-12.8 10.1 -0.2 0.6-0.3 1.3-0.4 1.9 -1.3 6.8-1.1 7 5.9 7.1 7.5 0.1 6.3-0.9 6.4 6.5 0.1 8.4 0 8.6-8.3 8.3 -3.8-0.1-4.5 1.2-4.5 4.7 0.2 16.3 0 32.5 0.2 48.8 0 3.3-0.7 4.7-4.2 4.4 -3.9-0.3-7.8-0.3-11.7 0 -3 0.2-3.8-0.8-3.8-3.8 0.1-16.4-0.1-32.9 0.2-49.3 0.1-4-1.2-5.3-4.9-4.6 -4.3 0.8-6-0.9-5.3-5.2 0.1-0.8 0-1.6 0-2.4 0-7 0-7.1 6.7-7.2 3 0 3.5-1.2 3.4-3.8 -0.1-2.8-0.1-5.6 0.3-8.3 1.7-11.7 8.3-19 19.6-22.4 1.5-0.4 3.3 0 4.5-1.4 3.9 0 7.8 0 11.7 0C351.7 342.6 353.6 341.3 355.2 342.3z"/><path class="st2" d="M10.2 401l-0.4 0 -0.4 0c0-2.6 0-5.2 0-7.8 0.3-0.1 0.5-0.1 0.8 0C12.4 395.7 12.3 398.3 10.2 401z"/><path class="st3" d="M355.2 342.3c-1.7 0.1-3.6 0.7-5-0.9 1.6 0 3.3 0 4.9 0C355 341.7 355 342 355.2 342.3z"/><path class="st1" d="M10.2 401c0-2.6 0-5.3 0-7.9 3.4-35.2 35.5-56.9 68.1-45.9 9.1 3.1 16.2 8.7 21.6 16.7 1.6 2.3 1.8 4-0.9 5.5 -0.9 0.5-1.6 1.1-2.4 1.7 -3 2.2-5.8 5.8-9.1 6.2 -3.3 0.4-4.3-4.8-6.8-7.1 -13-11.9-33.6-9.8-43.5 4.8 -8.5 12.6-8.7 31.3-0.2 43.8 12.2 17.8 35.8 17.9 50.7-0.1 1.7-2.1 1.2-4.8 0.5-7 -0.6-2.1-3.1-0.8-4.7-1 -1.9-0.2-3.9 0.1-5.8-0.1 -3.2-0.2-7.8 1.6-9.3-0.8 -2.1-3.2-0.5-7.9-0.6-11.9 -0.1-1.8 1.2-2 2.6-2 10.7 0 21.5 0 32.2 0 2.2 0 2.7 0.9 2.7 2.9 -0.1 15.9-0.1 31.9 0 47.8 0 2.1-0.7 3-2.8 2.9 -0.6-0.1-1.3 0-2 0 -3.7-0.1-8.2 1-11-0.6 -2.8-1.7-0.2-6.6-1.3-10 -0.3 0-0.7-0.1-0.9 0.1 -19.8 18.8-51.7 12.6-67.2-9.8C14.2 420.6 11.1 411.2 10.2 401z"/><path class="st1" d="M270.1 385.7c0-13.6 0.1-25.9-0.1-38.3 0-3.4 0.4-5.2 4.4-4.7 5 0.6 11.6-2.1 14.5 1.1 2.5 2.8 0.8 9.3 0.8 14.2 0 22.4 0 44.9 0 67.3 0 3.1-0.3 6.4 3.5 7.7 1.5 0.5 1.2 1.8 1.2 2.9 0 2.8-0.4 5.6 0.1 8.3 0.9 5.1-1.6 6.4-6.1 6.6 -9.7 0.5-13.3-2.3-15.7-12.8 -12.3 13.3-26.4 16.9-41 10.2 -14.4-6.6-23.5-23.5-21.7-40.3 0.9-8.7 3.4-16.8 9-23.8 13-16.4 36-16.6 49.3-0.5C268.5 384 268.9 384.5 270.1 385.7z"/><path class="st1" d="M523.5 431.1c3.2-8.4 6-15.9 8.9-23.5 0.7-1.8-0.4-3.2-1-4.6 -3.5-8.8-6.9-17.5-10.6-26.2 -1.4-3.3-0.5-3.8 2.7-3.8 11.6-0.2 11.6-0.3 15.3 10.6 1.3 3.9 2.7 7.8 4.5 12.8 2.5-7.1 4.8-13.1 6.7-19.2 1-3.2 2.5-4.3 5.8-4.2 11.6 0.1 11.6 0 7.2 10.9 -2.2 5.4-4 11-6.6 16.2 -2.3 4.5-2 8.5-0.1 12.9 2.3 5.4 4.2 10.9 6.3 16.3 0.1 0.3 0.5 0.4 0.9 0.8 6.9-17.6 13.9-35 20.6-52.6 1.3-3.4 2.8-5.1 6.6-4.7 2.9 0.3 5.9 0.3 8.8 0 4.1-0.3 5.1 0.6 3.4 4.8 -7.1 16.6-14 33.2-21 49.9 -2.6 6.3-5.4 12.5-7.9 18.9 -0.9 2.4-2 3.5-4.9 3.5 -12.6 0.1-12.6 0.2-17.3-11.6 -2.6-6.6-5.2-13.3-7.9-19.9 -0.1-0.3-0.5-0.4-1.2-0.9 -3.7 9.6-7.6 18.9-11 28.5 -1.1 3.2-2.7 4.1-5.9 4 -11.8-0.1-11.8 0-16.4-11.1 -8.5-20.4-16.9-40.8-25.5-61.1 -1.6-3.9-1.1-4.9 3.2-4.9 13.4 0.1 13.4 0 18.3 12.5C511.4 400.2 517.3 415.2 523.5 431.1z"/><path class="st1" d="M440.4 371.6c23.2 0 40.2 16.8 40.3 39.8 0.1 22.8-17.2 39.9-40.3 39.8 -23.2-0.1-40.3-17-40.3-39.8C400.1 388.5 417.2 371.7 440.4 371.6z"/><path class="st1" d="M138.6 388.2c3.3-3.7 5.3-6.1 7.6-8.4 3-3.1 6.6-5.4 10.6-6.8 8.4-2.9 9.8-1.9 9.8 6.8 0 3.1 0.9 6.7-0.4 9.1 -1.4 2.7-5.6 1.2-8.4 2.1 -3.4 1.1-6.9 2-9.9 4 -4.8 3.2-7.8 7.2-7.6 13.7 0.4 12.3 0 24.7 0.2 37.1 0 3.2-0.8 4.3-4.1 4.1 -5-0.3-11.6 1.6-14.6-0.9 -3.2-2.6-1-9.4-1-14.4 -0.1-19 0.1-38.1-0.1-57.1 0-3.7 0.9-5.1 4.6-4.6 4.4 0.6 10.4-2.1 13 1.2C140.3 376.8 138.6 382.4 138.6 388.2z"/><path class="st1" d="M197 411.4c0 11.4-0.1 22.8 0.1 34.1 0.1 3.5-1 4.5-4.4 4.3 -3.9-0.3-7.8-0.3-11.7 0 -3.2 0.2-3.7-1.1-3.7-3.9 0.1-23.1 0.1-46.2 0-69.3 0-3 0.9-4 3.9-3.9 4.1 0.2 8.1 0.2 12.2 0 3.2-0.2 3.8 1.2 3.7 4C197 388.4 197 399.9 197 411.4z"/><path class="st4" d="M197.1 352.7c0 9.8 0 9.8-9.6 9.8 -10.1 0-10.1 0-10.1-10.2 0-9.5 0-9.5 9.3-9.5 0.2 0 0.3 0 0.5 0C197.1 342.7 197.1 342.7 197.1 352.7z"/><path class="st0" d="M270.1 413.9c1.7 7.9-2 14.3-10.1 18.3 -7.2 3.6-14.3 3-20.7-1.8 -7-5.2-9.7-12.6-8.9-21 0.9-8.7 4.5-16 13.1-19.7 11.8-5 26.5 5.1 26.5 18C270.1 409.4 270.1 411.1 270.1 413.9z"/><path class="st0" d="M420.5 411.7c0.1-8.2 2.6-15.3 9.7-20.1 7.4-5 17.3-3.9 23.6 2.4 8.9 8.9 8.8 26.1-0.1 35 -5.6 5.6-12.5 6.9-19.8 4.3 -8.6-3.1-12.2-10.1-13.4-18.7C420.4 413.6 420.5 412.6 420.5 411.7z"/></svg>
